<svg version="1.1" viewBox="0.0 0.0 604.7244094488188 604.7244094488188" fill="none" stroke="none" stroke-linecap="square" stroke-miterlimit="10" xmlns:xlink="http://www.w3.org/1999/xlink" xmlns="http://www.w3.org/2000/svg"><clipPath id="p.0"><path d="m0 0l604.7244 0l0 604.7244l-604.7244 0l0 -604.7244z" clip-rule="nonzero"/></clipPath><g clip-path="url(#p.0)"><path fill="#000000" fill-opacity="0.0" d="m0 0l604.7244 0l0 604.7244l-604.7244 0z" fill-rule="evenodd"/><path fill="#f8f8f8" d="m0 30.343643l0 0c0 -16.137917 13.082367 -29.220284 29.220284 -29.220284l546.2839 0c7.749695 0 15.181946 3.0785565 20.661865 8.558423c5.4798584 5.479866 8.558411 12.91216 8.558411 20.661861l0 546.2839c0 16.137878 -13.082397 29.220276 -29.220276 29.220276l-546.2839 0c-16.137917 0 -29.220284 -13.082397 -29.220284 -29.220276z" fill-rule="evenodd"/><path fill="#000000" fill-opacity="0.0" d="m0 0l604.7244 0l0 604.7244l-604.7244 0z" fill-rule="evenodd"/><path fill="#404040" d="m143.36841 400.36218q-18.203125 -0.40625 -28.90625 -12.203125q-10.703125 -11.796875 -10.703125 -34.203125l0 -11.0q0 -8.796875 -3.609375 -14.1875q-3.59375 -5.40625 -9.78125 -5.40625l-4.0 0l0 -14.59375l4.0 0q6.1875 0 9.78125 -5.40625q3.609375 -5.40625 3.609375 -14.203125l0 -10.796875q0 -22.40625 10.703125 -34.296875q10.703125 -11.90625 28.90625 -12.109375l5.390625 0l0 14.8125l-5.390625 0q-11.0 0.1875 -16.703125 7.390625q-5.703125 7.203125 -5.703125 20.40625l0 12.0q0 15.390625 -4.796875 21.703125q-4.796875 6.296875 -15.0 7.5l0 0.796875q10.390625 1.390625 15.09375 7.390625q4.703125 6.0 4.703125 21.8125l0 12.0q0 13.1875 5.703125 20.484375q5.703125 7.3125 16.703125 7.3125l5.390625 0l0 14.796875l-5.390625 0z" fill-rule="nonzero"/><path fill="#404040" d="m241.36531 376.76843q-13.0 0 -24.0 -4.90625q-11.0 -4.90625 -17.609375 -13.296875l15.0 -13.609375q12.609375 12.203125 27.8125 12.203125q7.390625 0 12.1875 -2.59375q4.8124847 -2.609375 4.8124847 -7.796875q0 -3.0 -2.90625 -5.703125q-2.9062347 -2.703125 -6.7031097 -4.5q-3.796875 -1.796875 -11.203125 -4.796875q-0.796875 -0.40625 -1.296875 -0.609375q-0.5 -0.203125 -1.296875 -0.5q-0.796875 -0.296875 -1.40625 -0.5q-7.390625 -3.203125 -11.0 -4.890625q-3.59375 -1.703125 -8.703125 -4.796875q-5.09375 -3.109375 -7.390625 -5.90625q-2.296875 -2.796875 -4.109375 -7.09375q-1.796875 -4.3125 -1.796875 -9.703125q0 -13.0 11.203125 -20.5q11.203125 -7.5 28.203125 -7.5q23.79686 0 38.20311 16.1875l-15.40625 12.609375q-10.999985 -9.203125 -23.593735 -9.203125q-7.796875 0 -12.5 2.296875q-4.703125 2.296875 -4.703125 6.5q0 2.0 1.59375 3.90625q1.609375 1.890625 5.609375 4.0q4.0 2.09375 6.59375 3.203125q2.609375 1.09375 8.796875 3.5q18.406235 7.390625 24.406235 12.0q10.59375 8.390625 10.796875 21.796875q0 14.203125 -10.703125 22.203125q-10.6875 8.0 -28.89061 8.0zm129.79378 -107.0q16.796875 0 27.296875 10.09375q10.5 10.09375 10.5 32.09375l0 62.40625l-23.0 0l0 -57.59375q0 -13.203125 -5.796875 -19.203125q-5.796875 -6.0 -15.390625 -6.0q-22.609375 0 -22.609375 24.796875l0 58.0l-23.0 0l0 -102.203125l21.203125 0l0 12.609375q3.0 -6.0 11.703125 -10.5q8.703125 -4.5 19.09375 -4.5z" fill-rule="nonzero"/><path fill="#404040" d="m455.9685 400.36218l0 -14.796875l5.390625 0q11.0 0 16.703125 -7.3125q5.703125 -7.296875 5.703125 -20.484375l0 -12.0q0 -15.8125 4.6875 -21.8125q4.703125 -6.0 15.109375 -7.390625l0 -0.796875q-10.0 -1.203125 -14.90625 -7.5q-4.890625 -6.3125 -4.890625 -21.703125l0 -12.0q0 -13.203125 -5.703125 -20.40625q-5.703125 -7.203125 -16.703125 -7.390625l-5.390625 0l0 -14.8125l5.390625 0q18.40625 0.203125 29.0 12.109375q10.609375 11.890625 10.609375 34.296875l0 10.796875q0 8.796875 3.59375 14.203125q3.59375 5.40625 9.796875 5.40625l4.0 0l0 14.59375l-4.0 0q-6.203125 0 -9.796875 5.40625q-3.59375 5.390625 -3.59375 14.1875l0 11.0q0 22.40625 -10.609375 34.203125q-10.59375 11.796875 -29.0 12.203125l-5.390625 0z" fill-rule="nonzero"/></g></svg>