<svg version="1.1" viewBox="0.0 0.0 396.8503937007874 94.48818897637796" fill="none" stroke="none" stroke-linecap="square" stroke-miterlimit="10" xmlns:xlink="http://www.w3.org/1999/xlink" xmlns="http://www.w3.org/2000/svg"><clipPath id="p.0"><path d="m0 0l396.8504 0l0 94.48819l-396.8504 0l0 -94.48819z" clip-rule="nonzero"/></clipPath><g clip-path="url(#p.0)"><path fill="#000000" fill-opacity="0.0" d="m0 0l396.8504 0l0 94.48819l-396.8504 0z" fill-rule="evenodd"/><path fill="#000000" fill-opacity="0.0" d="m0 0l396.8504 0l0 94.48819l-396.8504 0z" fill-rule="evenodd"/><path fill="#404040" d="m43.389038 71.945q-5.328125 -0.109375 -8.46875 -3.578125q-3.140625 -3.453125 -3.140625 -10.03125l0 -3.21875q0 -2.59375 -1.0625 -4.171875q-1.046875 -1.578125 -2.859375 -1.578125l-1.171875 0l0 -4.28125l1.171875 0q1.8125 0 2.859375 -1.578125q1.0625 -1.59375 1.0625 -4.171875l0 -3.171875q0 -6.5625 3.140625 -10.046875q3.140625 -3.5 8.46875 -3.5625l1.59375 0l0 4.34375l-1.59375 0q-3.21875 0.0625 -4.890625 2.171875q-1.671875 2.109375 -1.671875 5.984375l0 3.515625q0 4.515625 -1.40625 6.375q-1.40625 1.84375 -4.40625 2.1875l0 0.234375q3.0625 0.40625 4.4375 2.171875q1.375 1.765625 1.375 6.390625l0 3.515625q0 3.875 1.671875 6.015625q1.671875 2.140625 4.890625 2.140625l1.59375 0l0 4.34375l-1.59375 0z" fill-rule="nonzero"/><path fill="#404040" d="m72.130646 65.023125q-3.8125 0 -7.03125 -1.4375q-3.21875 -1.4375 -5.15625 -3.90625l4.390625 -3.984375q3.703125 3.578125 8.15625 3.578125q2.171875 0 3.578125 -0.75q1.40625 -0.765625 1.40625 -2.296875q0 -0.875 -0.859375 -1.671875q-0.84375 -0.796875 -1.953125 -1.3125q-1.109375 -0.53125 -3.28125 -1.421875q-0.234375 -0.109375 -0.390625 -0.171875q-0.140625 -0.0625 -0.375 -0.140625q-0.234375 -0.09375 -0.40625 -0.15625q-2.171875 -0.9375 -3.234375 -1.4375q-1.046875 -0.5 -2.546875 -1.40625q-1.5 -0.90625 -2.171875 -1.71875q-0.671875 -0.828125 -1.203125 -2.078125q-0.53125 -1.265625 -0.53125 -2.859375q0 -3.8125 3.28125 -6.0q3.296875 -2.203125 8.28125 -2.203125q6.96875 0 11.203125 4.75l-4.515625 3.6875q-3.234375 -2.6875 -6.921875 -2.6875q-2.296875 0 -3.671875 0.671875q-1.375 0.671875 -1.375 1.90625q0 0.578125 0.46875 1.140625q0.46875 0.5625 1.640625 1.171875q1.171875 0.609375 1.9375 0.9375q0.765625 0.328125 2.578125 1.03125q5.390625 2.171875 7.15625 3.515625q3.109375 2.46875 3.171875 6.390625q0 4.171875 -3.140625 6.515625q-3.140625 2.34375 -8.484375 2.34375zm33.975983 0q-4.984375 0 -8.078125 -2.953125q-3.078125 -2.96875 -3.078125 -9.484375l0 -18.234375l6.75 0l0 16.765625q0 7.453125 6.15625 7.453125q6.625 0 6.625 -7.328125l0 -16.890625l6.75 0l0 29.96875l-6.75 0l0 -2.875q-2.875 3.578125 -8.375 3.578125zm39.585358 0q-4.921875 0 -7.625 -2.984375l0 2.28125l-6.75 0l0 -39.234375l6.75 -3.109375l0 14.71875q1.234375 -1.34375 3.375 -2.1875q2.140625 -0.859375 4.375 -0.859375q5.625 0 9.140625 4.21875q3.515625 4.21875 3.515625 11.4375q0 7.5 -3.40625 11.609375q-3.390625 4.109375 -9.375 4.109375zm-1.046875 -6.453125q3.453125 0 5.234375 -2.421875q1.796875 -2.4375 1.796875 -6.84375q0 -4.515625 -1.796875 -6.890625q-1.78125 -2.375 -5.234375 -2.375q-2.234375 0 -3.96875 0.90625q-1.734375 0.90625 -2.609375 2.078125l0 12.609375q2.171875 2.9375 6.578125 2.9375zm37.819733 -24.921875q4.9375 0 8.015625 2.96875q3.078125 2.953125 3.078125 9.40625l0 18.296875l-6.75 0l0 -16.890625q0 -3.875 -1.703125 -5.625q-1.703125 -1.765625 -4.515625 -1.765625q-6.625 0 -6.625 7.265625l0 17.015625l-6.75 0l0 -29.96875l6.21875 0l0 3.6875q0.890625 -1.75 3.4375 -3.0625q2.546875 -1.328125 5.59375 -1.328125zm34.022858 31.375q-6.625 0 -10.5 -4.1875q-3.859375 -4.203125 -3.859375 -11.46875q0 -7.21875 3.859375 -11.46875q3.875 -4.25 10.5 -4.25q6.6875 0 10.53125 4.25q3.84375 4.25 3.84375 11.46875q0 7.203125 -3.84375 11.4375q-3.84375 4.21875 -10.53125 4.21875zm0 -6.453125q3.640625 0 5.59375 -2.453125q1.96875 -2.46875 1.96875 -6.75q0 -4.28125 -1.96875 -6.796875q-1.953125 -2.53125 -5.59375 -2.53125q-3.578125 0 -5.578125 2.53125q-1.984375 2.515625 -1.984375 6.796875q0 4.21875 1.984375 6.71875q2.0 2.484375 5.578125 2.484375zm35.085358 6.453125q-6.171875 0 -9.6875 -4.125q-3.515625 -4.140625 -3.515625 -11.59375q0 -7.21875 3.609375 -11.4375q3.609375 -4.21875 9.40625 -4.21875q4.8125 0 7.453125 2.875l0 -11.4375l6.75 -3.109375l0 42.34375l-6.75 0l0 -2.28125q-0.9375 1.21875 -2.90625 2.109375q-1.953125 0.875 -4.359375 0.875zm0.9375 -6.453125q4.390625 0 6.328125 -2.9375l0 -12.65625q-2.109375 -2.9375 -6.453125 -2.9375q-3.453125 0 -5.34375 2.40625q-1.875 2.40625 -1.875 6.859375q0 4.21875 1.90625 6.75q1.90625 2.515625 5.4375 2.515625zm33.960358 6.453125q-4.9375 0 -8.015625 -2.578125q-3.078125 -2.578125 -3.078125 -7.390625q0 -4.875 3.515625 -7.390625q3.53125 -2.53125 8.453125 -2.53125q4.28125 0 7.453125 1.59375l0 -1.765625q0 -5.390625 -5.921875 -5.390625q-4.9375 0 -9.5 3.046875l-2.0625 -5.515625q5.453125 -3.453125 12.140625 -3.453125q11.90625 0 11.90625 11.25l0 19.421875l-6.5625 0l0 -2.34375q-3.171875 3.046875 -8.328125 3.046875zm1.234375 -5.921875q4.21875 0 7.09375 -3.0l0 -3.859375q-2.703125 -1.359375 -6.390625 -1.359375q-2.8125 0 -4.671875 1.0625q-1.84375 1.046875 -1.84375 3.109375q0 1.8125 1.515625 2.9375q1.53125 1.109375 4.296875 1.109375zm40.522858 -0.703125l8.75 0l0 5.921875l-24.234375 0l0 -5.921875l8.734375 0l0 -30.5l-6.96875 0l-3.109375 -5.921875l16.828125 0l0 36.421875z" fill-rule="nonzero"/><path fill="#404040" d="m351.876 71.945l0 -4.34375l1.578125 0q3.21875 0 4.890625 -2.140625q1.671875 -2.140625 1.671875 -6.015625l0 -3.515625q0 -4.625 1.375 -6.390625q1.390625 -1.765625 4.4375 -2.171875l0 -0.234375q-2.9375 -0.34375 -4.375 -2.1875q-1.4375 -1.859375 -1.4375 -6.375l0 -3.515625q0 -3.875 -1.671875 -5.984375q-1.671875 -2.109375 -4.890625 -2.171875l-1.578125 0l0 -4.34375l1.578125 0q5.390625 0.0625 8.5 3.5625q3.109375 3.484375 3.109375 10.046875l0 3.171875q0 2.578125 1.046875 4.171875q1.0625 1.578125 2.890625 1.578125l1.171875 0l0 4.28125l-1.171875 0q-1.828125 0 -2.890625 1.578125q-1.046875 1.578125 -1.046875 4.171875l0 3.21875q0 6.578125 -3.109375 10.03125q-3.109375 3.46875 -8.5 3.578125l-1.578125 0z" fill-rule="nonzero"/></g></svg>